<svg width="24" height="25" viewBox="0 0 24 25" fill="none" xmlns="http://www.w3.org/2000/svg">
<path d="M18.3543 18.1453C18.5493 18.3403 18.5493 18.6573 18.3543 18.8523C18.2563 18.9503 18.1283 18.9983 18.0003 18.9983C17.8723 18.9983 17.7443 18.9493 17.6463 18.8523L12.0003 13.2062L6.35426 18.8523C6.25626 18.9503 6.12825 18.9983 6.00025 18.9983C5.87225 18.9983 5.74425 18.9493 5.64625 18.8523C5.45125 18.6573 5.45125 18.3403 5.64625 18.1453L11.2923 12.4993L5.64625 6.85328C5.45125 6.65828 5.45125 6.34125 5.64625 6.14625C5.84125 5.95125 6.15825 5.95125 6.35325 6.14625L11.9992 11.7923L17.6453 6.14625C17.8403 5.95125 18.1573 5.95125 18.3523 6.14625C18.5473 6.34125 18.5473 6.65828 18.3523 6.85328L12.7073 12.4993L18.3543 18.1453Z" fill="black"/>
</svg>
