<svg width="62" height="78" viewBox="0 0 62 78" fill="none" xmlns="http://www.w3.org/2000/svg">
<rect x="6" y="3" width="50" height="28" rx="14" fill="#777777"/>
<g filter="url(#filter0_dd_675_14)">
<path fill-rule="evenodd" clip-rule="evenodd" d="M20 29C26.6274 29 32 23.6274 32 17C32 10.3726 26.6274 5 20 5C13.3726 5 8 10.3726 8 17C8 23.6274 13.3726 29 20 29Z" fill="white"/>
</g>
<rect x="6" y="41" width="50" height="28" rx="14" fill="black"/>
<g filter="url(#filter1_dd_675_14)">
<path fill-rule="evenodd" clip-rule="evenodd" d="M42 67C48.6274 67 54 61.6274 54 55C54 48.3726 48.6274 43 42 43C35.3726 43 30 48.3726 30 55C30 61.6274 35.3726 67 42 67Z" fill="white"/>
</g>
<defs>
<filter id="filter0_dd_675_14" x="0" y="0" width="40" height="40" filterUnits="userSpaceOnUse" color-interpolation-filters="sRGB">
<feFlood flood-opacity="0" result="BackgroundImageFix"/>
<feColorMatrix in="SourceAlpha" type="matrix" values="0 0 0 0 0 0 0 0 0 0 0 0 0 0 0 0 0 0 127 0" result="hardAlpha"/>
<feOffset dy="3"/>
<feGaussianBlur stdDeviation="0.5"/>
<feColorMatrix type="matrix" values="0 0 0 0 0 0 0 0 0 0 0 0 0 0 0 0 0 0 0.04 0"/>
<feBlend mode="normal" in2="BackgroundImageFix" result="effect1_dropShadow_675_14"/>
<feColorMatrix in="SourceAlpha" type="matrix" values="0 0 0 0 0 0 0 0 0 0 0 0 0 0 0 0 0 0 127 0" result="hardAlpha"/>
<feOffset dy="3"/>
<feGaussianBlur stdDeviation="4"/>
<feColorMatrix type="matrix" values="0 0 0 0 0 0 0 0 0 0 0 0 0 0 0 0 0 0 0.08 0"/>
<feBlend mode="normal" in2="effect1_dropShadow_675_14" result="effect2_dropShadow_675_14"/>
<feBlend mode="normal" in="SourceGraphic" in2="effect2_dropShadow_675_14" result="shape"/>
</filter>
<filter id="filter1_dd_675_14" x="22" y="38" width="40" height="40" filterUnits="userSpaceOnUse" color-interpolation-filters="sRGB">
<feFlood flood-opacity="0" result="BackgroundImageFix"/>
<feColorMatrix in="SourceAlpha" type="matrix" values="0 0 0 0 0 0 0 0 0 0 0 0 0 0 0 0 0 0 127 0" result="hardAlpha"/>
<feOffset dy="3"/>
<feGaussianBlur stdDeviation="0.5"/>
<feColorMatrix type="matrix" values="0 0 0 0 0 0 0 0 0 0 0 0 0 0 0 0 0 0 0.04 0"/>
<feBlend mode="normal" in2="BackgroundImageFix" result="effect1_dropShadow_675_14"/>
<feColorMatrix in="SourceAlpha" type="matrix" values="0 0 0 0 0 0 0 0 0 0 0 0 0 0 0 0 0 0 127 0" result="hardAlpha"/>
<feOffset dy="3"/>
<feGaussianBlur stdDeviation="4"/>
<feColorMatrix type="matrix" values="0 0 0 0 0 0 0 0 0 0 0 0 0 0 0 0 0 0 0.08 0"/>
<feBlend mode="normal" in2="effect1_dropShadow_675_14" result="effect2_dropShadow_675_14"/>
<feBlend mode="normal" in="SourceGraphic" in2="effect2_dropShadow_675_14" result="shape"/>
</filter>
</defs>
</svg>
