<svg width="18" height="12" viewBox="0 0 18 12" fill="none" xmlns="http://www.w3.org/2000/svg">
<path fill-rule="evenodd" clip-rule="evenodd" d="M16 1H2C1.44772 1 1 1.44772 1 2V10C1 10.5523 1.44772 11 2 11H16C16.5523 11 17 10.5523 17 10V2C17 1.44772 16.5523 1 16 1ZM2 0C0.895431 0 0 0.895431 0 2V10C0 11.1046 0.89543 12 2 12H16C17.1046 12 18 11.1046 18 10V2C18 0.895431 17.1046 0 16 0H2Z" fill="black"/>
<path fill-rule="evenodd" clip-rule="evenodd" d="M8.10987 5.01218L0.78125 1.44966L1.21844 0.550293L8.54706 4.11282C8.97193 4.31935 9.46927 4.31366 9.88931 4.09747L16.771 0.555409L17.2287 1.44454L10.347 4.9866C9.64689 5.34693 8.81799 5.35641 8.10987 5.01218Z" fill="black"/>
</svg>
