<svg width="14" height="17" viewBox="0 0 14 17" fill="none" xmlns="http://www.w3.org/2000/svg">
<path fill-rule="evenodd" clip-rule="evenodd" d="M12 7.5H2C1.44772 7.5 1 7.94772 1 8.5V14.5C1 15.0523 1.44772 15.5 2 15.5H12C12.5523 15.5 13 15.0523 13 14.5V8.5C13 7.94772 12.5523 7.5 12 7.5ZM2 6.5C0.895431 6.5 0 7.39543 0 8.5V14.5C0 15.6046 0.89543 16.5 2 16.5H12C13.1046 16.5 14 15.6046 14 14.5V8.5C14 7.39543 13.1046 6.5 12 6.5H2Z" fill="black"/>
<path fill-rule="evenodd" clip-rule="evenodd" d="M5 10C5 9.72386 5.22386 9.5 5.5 9.5H8.5C8.77614 9.5 9 9.72386 9 10C9 10.2761 8.77614 10.5 8.5 10.5H5.5C5.22386 10.5 5 10.2761 5 10Z" fill="black"/>
<path fill-rule="evenodd" clip-rule="evenodd" d="M5.5 1.5C4.67157 1.5 4 2.17157 4 3V7H3V3C3 1.61929 4.11929 0.5 5.5 0.5H8.5C9.88071 0.5 11 1.61929 11 3V7H10V3C10 2.17157 9.32843 1.5 8.5 1.5H5.5Z" fill="black"/>
</svg>
