<svg xmlns="http://www.w3.org/2000/svg" xmlns:xlink="http://www.w3.org/1999/xlink">
<style xmlns="http://www.w3.org/2000/svg"><![CDATA[:root>svg{display:none}:root>svg:target{display:block}]]></style>
	<svg id="icon-arrow-down" xmlns="http://www.w3.org/2000/svg" fill="none" viewBox="0 0 8 4">
		<path fill="currentColor" fill-rule="evenodd" d="M3.674 2.63a.5.5 0 0 0 .707-.004L6.644.336a.5.5 0 1 1 .712.704L5.092 3.33a1.5 1.5 0 0 1-2.121.011L.648 1.044a.5.5 0 1 1 .704-.71L3.674 2.63z" clip-rule="evenodd"/>
	</svg>
	<svg id="icon-select-arrow-down" xmlns="http://www.w3.org/2000/svg" fill="none" viewBox="0 0 8 4">
		<path fill="currentColor" fill-rule="evenodd" d="M3.674 2.63a.5.5 0 0 0 .707-.004L6.644.336a.5.5 0 1 1 .712.704L5.092 3.33a1.5 1.5 0 0 1-2.121.011L.648 1.044a.5.5 0 1 1 .704-.71L3.674 2.63z" clip-rule="evenodd"/>
	</svg>
	<symbol id="icon-arrow-left" xmlns="http://www.w3.org/2000/svg" fill="none" viewBox="0 0 5 9">
		<path fill="currentColor" fill-rule="evenodd" d="M1.935 4.209a.5.5 0 0 0 .004.65l2.439 2.814a.5.5 0 0 1-.756.655L1.183 5.514a1.5 1.5 0 0 1-.01-1.952L3.618.677a.5.5 0 1 1 .763.646L1.935 4.21z" clip-rule="evenodd"/>
	</symbol>
	<symbol id="icon-arrow-right" xmlns="http://www.w3.org/2000/svg" fill="none" viewBox="0 0 5 9">
		<path fill="currentColor" fill-rule="evenodd" d="M3.065 4.791a.5.5 0 0 0-.004-.65L.622 1.327a.5.5 0 0 1 .756-.655l2.439 2.814a1.5 1.5 0 0 1 .01 1.952L1.382 8.323a.5.5 0 1 1-.763-.646L3.065 4.79z" clip-rule="evenodd"/>
	</symbol>
	<svg id="icon-account" viewBox="0 0 22 22" fill="none" xmlns="http://www.w3.org/2000/svg">
		<path d="M19 20V18C19 16.9391 18.5786 15.9217 17.8284 15.1716C17.0783 14.4214 16.0609 14 15 14H7C5.93913 14 4.92172 14.4214 4.17157 15.1716C3.42143 15.9217 3 16.9391 3 18V20" stroke="currentColor" stroke-width="1.8" stroke-linecap="round" stroke-linejoin="round"/>
		<path d="M11 10C13.2091 10 15 8.20914 15 6C15 3.79086 13.2091 2 11 2C8.79086 2 7 3.79086 7 6C7 8.20914 8.79086 10 11 10Z" stroke="currentColor" stroke-width="1.8" stroke-linecap="round" stroke-linejoin="round"/>
	</svg>
	<svg id="icon-hsearch" xmlns="http://www.w3.org/2000/svg" fill="none" viewBox="0 0 16 16">
		<path fill="currentColor" fill-rule="evenodd" d="M14.177 7.176A6.588 6.588 0 1 0 1 7.176a6.588 6.588 0 0 0 13.177 0zm-11.942 0a5.353 5.353 0 1 1 10.706 0 5.353 5.353 0 0 1-10.706 0z" clip-rule="evenodd"/>
		<path fill="currentColor" d="M11.156 11.517a.618.618 0 0 1 .805-.053l.069.06 2.587 2.631a.618.618 0 0 1-.812.927l-.07-.06-2.586-2.632a.618.618 0 0 1 .007-.873z"/>
	</svg>
	<svg id="icon-search-category" xmlns="http://www.w3.org/2000/svg" fill="none" viewBox="0 0 18 18">
		<path fill="currentColor" fill-rule="evenodd" clip-rule="evenodd" d="M16.75 3a.75.75 0 0 1-.75.75h-3.5a.75.75 0 1 1 0-1.5H16a.75.75 0 0 1 .75.75zm0 6a.75.75 0 0 1-.75.75H9.5a.75.75 0 0 1 0-1.5H16a.75.75 0 0 1 .75.75zm0 6a.75.75 0 0 1-.75.75h-.5a.75.75 0 1 1 0-1.5h.5a.75.75 0 0 1 .75.75zm-7.5 0a.75.75 0 0 1-.75.75H2a.75.75 0 1 1 0-1.5h6.5a.75.75 0 0 1 .75.75zm-3-12a.75.75 0 0 1-.75.75H2a.75.75 0 0 1 0-1.5h3.5a.75.75 0 0 1 .75.75zm-3 6a.75.75 0 0 1-.75.75H2a.75.75 0 0 1 0-1.5h.5a.75.75 0 0 1 .75.75zm5-6a.75.75 0 1 0 1.5 0 .75.75 0 0 0-1.5 0zM7 3a2 2 0 1 0 4 0 2 2 0 0 0-4 0zM5.25 9a.75.75 0 1 0 1.5 0 .75.75 0 0 0-1.5 0zM4 9a2 2 0 1 0 4 0 2 2 0 0 0-4 0zm7.25 6a.75.75 0 1 0 1.5 0 .75.75 0 0 0-1.5 0zM10 15a2 2 0 1 0 4 0 2 2 0 0 0-4 0z"/>
	</svg>
	<svg id="icon-menu" xmlns="http://www.w3.org/2000/svg" fill="none" viewBox="0 0 22 22">
		<path stroke="currentColor" stroke-linecap="round" stroke-width="1.5" d="M12.8 13.25H20m-7.2 3.15H20m-7.2 3.15H20M3 20h5.2a1 1 0 0 0 1-1v-5.2a1 1 0 0 0-1-1H3a1 1 0 0 0-1 1V19a1 1 0 0 0 1 1zM13.8 9.65H19a1 1 0 0 0 1-1V3a1 1 0 0 0-1-1h-5.2a1 1 0 0 0-1 1v5.65a1 1 0 0 0 1 1zM3 9.65h5.2a1 1 0 0 0 1-1V3a1 1 0 0 0-1-1H3a1 1 0 0 0-1 1v5.65a1 1 0 0 0 1 1z"/>
	</svg>
	<svg id="icon-menu1" xmlns="http://www.w3.org/2000/svg" fill="none" viewBox="0 0 22 18">
		<path stroke="currentColor" stroke-linecap="round" stroke-linejoin="round" stroke-width="1.5" d="M2 2h18M2 9h18M2 16h18"/>
	</svg>
	<symbol id="icon-showmore" xmlns="http://www.w3.org/2000/svg" viewBox="0 0 24 24" fill="none" stroke="currentColor" stroke-width="1.5" stroke-linecap="round" stroke-linejoin="round">
		<path d="M21.5 2v6h-6m5.84 7.57a10 10 0 1 1-.57-8.38"/>
	</symbol>
	<svg id="icon-rstar-gray" xmlns="http://www.w3.org/2000/svg" fill="none" viewBox="0 0 14 14">
		<path fill="currentColor" fill-rule="evenodd" d="m6.905 11.283-2.972 1.634c-.498.274-1.08-.168-.985-.748l.567-3.46-2.404-2.45c-.403-.41-.18-1.126.376-1.21l3.323-.506 1.486-3.147a.666.666 0 0 1 1.218 0L9 4.543l3.323.505c.557.085.78.8.376 1.21l-2.404 2.451.567 3.46c.095.58-.487 1.023-.985.75l-2.972-1.636z" clip-rule="evenodd"/>
	</svg>
	<svg id="icon-rstar-gold" xmlns="http://www.w3.org/2000/svg" fill="none" viewBox="0 0 14 14">
		<path fill="currentColor" fill-rule="evenodd" d="m6.905 11.283-2.972 1.634c-.498.274-1.08-.168-.985-.748l.567-3.46-2.404-2.45c-.403-.41-.18-1.126.376-1.21l3.323-.506 1.486-3.147a.666.666 0 0 1 1.218 0L9 4.543l3.323.505c.557.085.78.8.376 1.21l-2.404 2.451.567 3.46c.095.58-.487 1.023-.985.75l-2.972-1.636z" clip-rule="evenodd"/>
	</svg>
	<svg id="icon-compare" xmlns="http://www.w3.org/2000/svg" fill="none" viewBox="0 0 24 24">
		<path fill="currentColor" d="M20.89 2.861a.9.9 0 0 1-.751 1.028l-16 2.5a.9.9 0 1 1-.278-1.778l16-2.5a.9.9 0 0 1 1.028.75z"/>
		<path fill="#fff" d="M14 4a2 2 0 1 1-4 0 2 2 0 0 1 4 0z"/><path fill="currentColor" fill-rule="evenodd" d="M12 4.8a.8.8 0 1 0 0-1.6.8.8 0 0 0 0 1.6zM12 6a2 2 0 1 0 0-4 2 2 0 0 0 0 4zM1 16c0 .303.02.604.057.9.159 1.258.648 2.432 1.407 3.343C3.402 21.367 4.674 22 6 22s2.598-.632 3.536-1.758c.759-.91 1.248-2.084 1.408-3.342.037-.296.056-.597.056-.9L6.262 7.472a.3.3 0 0 0-.524 0L1 16zm1.876.9c.145.852.491 1.614.971 2.19.636.764 1.421 1.11 2.153 1.11s1.517-.346 2.153-1.11c.48-.576.826-1.338.971-2.19H2.876zm.683-1.8L6 10.706 8.44 15.1H3.56zM13 14.094c0 .303.02.604.056.9.16 1.258.65 2.431 1.409 3.342.937 1.126 2.209 1.758 3.535 1.758s2.598-.633 3.535-1.758c.76-.91 1.25-2.084 1.409-3.342.037-.296.056-.597.056-.9l-4.738-8.528a.3.3 0 0 0-.524 0L13 14.094zm1.876.9c.145.851.491 1.614.971 2.19.636.763 1.421 1.11 2.153 1.11s1.517-.347 2.153-1.11c.48-.576.826-1.339.971-2.19h-6.248zm.683-1.8L18 8.8l2.44 4.394h-4.88z" clip-rule="evenodd"/>
	</svg>
	<svg id="icon-wishlist" xmlns="http://www.w3.org/2000/svg" fill="none" viewBox="0 0 24 22">
		<path fill="currentColor" fill-rule="evenodd" d="M14.464 1.582a6.33 6.33 0 0 1 8.755 5.85 6.33 6.33 0 0 1-1.855 4.477l-8.728 8.728a.9.9 0 0 1-1.273 0l-8.727-8.728a6.331 6.331 0 0 1 8.954-8.954l.41.41.41-.41a6.33 6.33 0 0 1 2.054-1.373zM16.887 2.9a4.53 4.53 0 0 0-3.204 1.328l-1.047 1.046a.9.9 0 0 1-1.273 0l-1.046-1.046a4.531 4.531 0 0 0-6.408 6.408l8.09 8.091 8.092-8.09A4.531 4.531 0 0 0 16.887 2.9z" clip-rule="evenodd"/>
	</svg>
	<svg id="icon-wc-active" viewBox="0 0 8 7" fill="none" xmlns="http://www.w3.org/2000/svg">
		<path fill-rule="evenodd" clip-rule="evenodd" d="M7.498.44a.75.75 0 0 1 .063 1.058l-4 4.5a.75.75 0 0 1-1.091.032l-2-2a.75.75 0 0 1 1.06-1.06l1.438 1.437L6.439.502A.75.75 0 0 1 7.5.439z" fill="#00AC45"/>
	</svg>
	<svg id="icon-add-to-cart" xmlns="http://www.w3.org/2000/svg" fill="none" viewBox="0 0 25 22">
		<path fill="currentColor" fill-rule="evenodd" d="M1.5 1.913c0-.488.395-.883.882-.883h2.016c1.1 0 2.087.682 2.476 1.712l.465 1.23a.895.895 0 0 1 .043 0l13.83-.012c1.886-.002 3.168 1.914 2.448 3.657l-2.276 5.51a2.059 2.059 0 0 1-1.534 1.24l-7.628 1.386a2.647 2.647 0 0 1-2.95-1.669L5.224 3.365a.882.882 0 0 0-.825-.57H2.382a.882.882 0 0 1-.882-.882zm6.505 3.822 2.918 7.725c.15.399.565.633.984.557l7.627-1.387a.294.294 0 0 0 .22-.177l2.275-5.51a.882.882 0 0 0-.816-1.219l-13.208.011z" clip-rule="evenodd"/>
		<path fill="currentColor" d="M9.147 21.03a1.765 1.765 0 1 0 0-3.53 1.765 1.765 0 0 0 0 3.53zm10.588 0a1.765 1.765 0 1 0 0-3.53 1.765 1.765 0 0 0 0 3.53z"/>
	</svg>
	<svg id="icon-viewed" viewBox="0 0 24 18" fill="none" xmlns="http://www.w3.org/2000/svg">
		<path fill="currentColor" fill-rule="evenodd" clip-rule="evenodd" d="M1.93 9a17.632 17.632 0 0 0 2.507 3.122c1.799 1.772 4.358 3.463 7.563 3.463s5.764-1.69 7.564-3.463A17.635 17.635 0 0 0 22.07 9a17.63 17.63 0 0 0-2.507-3.122C17.765 4.106 15.206 2.415 12 2.415s-5.764 1.69-7.564 3.463A17.627 17.627 0 0 0 1.93 9zM23 9l.703-.382-.001-.002-.004-.007-.01-.02-.04-.07-.15-.253a16.77 16.77 0 0 0-.577-.879 19.228 19.228 0 0 0-2.235-2.65C18.736 2.817 15.796.815 12 .815c-3.795 0-6.736 2.002-8.686 3.922-.98.966-1.73 1.929-2.235 2.65A16.764 16.764 0 0 0 .353 8.52l-.04.07-.011.02-.004.007v.002H.296L1 9l-.703-.381a.8.8 0 0 0 0 .762L1 9c-.703.38-.703.381-.703.382l.001.002.004.006.01.02a6.614 6.614 0 0 0 .19.323c.131.215.324.518.577.88a19.227 19.227 0 0 0 2.235 2.65c1.95 1.92 4.89 3.922 8.686 3.922 3.795 0 6.736-2.002 8.686-3.923.98-.965 1.73-1.928 2.235-2.65a16.773 16.773 0 0 0 .726-1.131l.04-.07.011-.02.004-.007v-.002h.001L23 9zm0 0 .703.38a.8.8 0 0 0 0-.761l-.703.38z"/>
		<path fill="currentColor" fill-rule="evenodd" clip-rule="evenodd" d="M12 6.8a2.2 2.2 0 1 0 0 4.4 2.2 2.2 0 0 0 0-4.4zM8.2 9a3.8 3.8 0 1 1 7.6 0 3.8 3.8 0 0 1-7.6 0z"/>
	</svg>
	<svg id="icon-fastorder" xmlns="http://www.w3.org/2000/svg" fill="none" viewBox="0 0 20 19">
		<path fill="currentColor" fill-rule="evenodd" clip-rule="evenodd" d="M16.376 3.21a.189.189 0 0 0-.121.018L3.093 9.063a.186.186 0 0 0-.096.08.21.21 0 0 0-.022.12.21.21 0 0 0 .044.115.187.187 0 0 0 .11.061l4.64 1.092A1.8 1.8 0 0 1 9.12 11.9l.96 4.435a.185.185 0 0 0 .06.11c.026.022.066.04.114.046a.214.214 0 0 0 .121-.02.186.186 0 0 0 .083-.093l6.061-12.884a.185.185 0 0 0 .02-.12.21.21 0 0 0-.058-.104.212.212 0 0 0-.104-.06zM15.6 1.773c1.527-.677 3.081.893 2.373 2.397l-6.06 12.883c-.733 1.558-3.04 1.299-3.403-.382l-.961-4.435a.2.2 0 0 0-.15-.152l-4.64-1.092c-1.682-.396-1.898-2.684-.32-3.384L15.6 1.772z"/><path fill="currentColor" fill-rule="evenodd" clip-rule="evenodd" d="M7.692 12.03a.8.8 0 0 1 .014-1.131l2.888-2.818a.8.8 0 0 1 1.118 1.145l-2.89 2.818a.8.8 0 0 1-1.13-.014z"/>
	</svg>
	<svg id="icon-sstock" xmlns="http://www.w3.org/2000/svg" fill="none" viewBox="0 0 7 6">
		<path fill="currentColor" fill-rule="evenodd" d="M6.528.49a.5.5 0 0 1 .064.705l-3.333 4a.5.5 0 0 1-.738.034l-2-2a.5.5 0 0 1 .708-.708L2.84 4.134 5.824.554a.5.5 0 0 1 .704-.063z" clip-rule="evenodd"/>
	</svg>
	<svg id="icon-rating" xmlns="http://www.w3.org/2000/svg" fill="none" viewBox="0 0 40 40">
		<path fill="#E9A631" d="M34.498 9.347a.914.914 0 0 1 1.31.21A19.001 19.001 0 1 1 23.107 1.36a.914.914 0 0 1 .73 1.106c-.11.513-.616.836-1.134.753A17.1 17.1 0 1 0 34.28 10.69c-.289-.438-.203-1.032.218-1.344Z"/>
		<path fill="#E9A631" fill-rule="evenodd" d="m29.85 7.616-1.882 1.035c-.316.174-.684-.106-.624-.473l.36-2.192-1.524-1.551c-.255-.26-.113-.713.239-.766l2.104-.32.941-1.993a.421.421 0 0 1 .772 0l.94 1.992 2.106.32c.352.054.494.507.238.766l-1.523 1.552.36 2.192c.06.367-.31.647-.625.474L29.85 7.616Z" clip-rule="evenodd"/>
	</svg>
	<svg id="icon-close" xmlns="http://www.w3.org/2000/svg" fill="none" viewBox="0 0 16 16">
		<path fill="currentColor" fill-rule="evenodd" d="M1.293 1.293a1 1 0 0 1 1.414 0L8 6.586l5.293-5.293a1 1 0 1 1 1.414 1.414L9.414 8l5.293 5.293a1 1 0 0 1-1.414 1.414L8 9.414l-5.293 5.293a1 1 0 0 1-1.414-1.414L6.586 8 1.293 2.707a1 1 0 0 1 0-1.414z" clip-rule="evenodd"/>
	</svg>
	<svg id="icon-calendar" xmlns="http://www.w3.org/2000/svg" viewBox="0 0 24 24" fill="none" stroke="currentColor" stroke-width="1.5" stroke-linecap="round" stroke-linejoin="round">
		<rect x="3" y="4" width="18" height="18" rx="2" ry="2"/><path d="M16 2v4M8 2v4M3 10h18"/>
	</svg>
	<svg id="icon-aviewed" xmlns="http://www.w3.org/2000/svg" viewBox="0 0 24 24" fill="none" stroke="currentColor" stroke-width="1.5" stroke-linecap="round" stroke-linejoin="round">
		<path d="M1 12s4-8 11-8 11 8 11 8-4 8-11 8-11-8-11-8z"/><circle cx="12" cy="12" r="3"/>
	</svg>
	<svg id="icon-comment" xmlns="http://www.w3.org/2000/svg" viewBox="0 0 24 24" fill="none" stroke="currentColor" stroke-width="1.5" stroke-linecap="round" stroke-linejoin="round">
		<path d="M21 11.5a8.38 8.38 0 0 1-.9 3.8 8.5 8.5 0 0 1-7.6 4.7 8.38 8.38 0 0 1-3.8-.9L3 21l1.9-5.7a8.38 8.38 0 0 1-.9-3.8 8.5 8.5 0 0 1 4.7-7.6 8.38 8.38 0 0 1 3.8-.9h.5a8.48 8.48 0 0 1 8 8v.5z"/>
	</svg>
</svg>