<?xml version="1.0" encoding="UTF-8"?>
<svg width="50" height="51" viewBox="0 0 50 51" fill="none" xmlns="http://www.w3.org/2000/svg">
<path fill-rule="evenodd" clip-rule="evenodd" d="M25 49.5C38.2548 49.5 49 38.7548 49 25.5C49 12.2452 38.2548 1.5 25 1.5C11.7452 1.5 1 12.2452 1 25.5C1 38.7548 11.7452 49.5 25 49.5ZM25 50.5C38.8071 50.5 50 39.3071 50 25.5C50 11.6929 38.8071 0.5 25 0.5C11.1929 0.5 0 11.6929 0 25.5C0 39.3071 11.1929 50.5 25 50.5Z" fill="#CF5151"/>
<path fill-rule="evenodd" clip-rule="evenodd" d="M25 10.0134C25.2761 10.0134 25.5 10.2373 25.5 10.5134V31.9185C25.5 32.1946 25.2761 32.4185 25 32.4185C24.7239 32.4185 24.5 32.1946 24.5 31.9185V10.5134C24.5 10.2373 24.7239 10.0134 25 10.0134Z" fill="#CF5151"/>
<path fill-rule="evenodd" clip-rule="evenodd" d="M25 35.5913C25.2761 35.5913 25.5 35.8152 25.5 36.0913V39.0881C25.5 39.3643 25.2761 39.5881 25 39.5881C24.7239 39.5881 24.5 39.3643 24.5 39.0881V36.0913C24.5 35.8152 24.7239 35.5913 25 35.5913Z" fill="#CF5151"/>
</svg>
