<?xml version="1.0" encoding="UTF-8"?>
<svg width="50" height="51" viewBox="0 0 50 51" fill="none" xmlns="http://www.w3.org/2000/svg">
<path fill-rule="evenodd" clip-rule="evenodd" d="M25 49.5C38.2548 49.5 49 38.7548 49 25.5C49 12.2452 38.2548 1.5 25 1.5C11.7452 1.5 1 12.2452 1 25.5C1 38.7548 11.7452 49.5 25 49.5ZM25 50.5C38.8071 50.5 50 39.3071 50 25.5C50 11.6929 38.8071 0.5 25 0.5C11.1929 0.5 0 11.6929 0 25.5C0 39.3071 11.1929 50.5 25 50.5Z" fill="#00BC52"/>
<path fill-rule="evenodd" clip-rule="evenodd" d="M34.366 19.0233C34.5542 19.2255 34.5428 19.5419 34.3407 19.73L20.2503 32.8455L14.701 28.7048C14.4797 28.5397 14.4342 28.2264 14.5993 28.0051C14.7644 27.7837 15.0777 27.7382 15.299 27.9033L20.1797 31.5451L33.6594 18.998C33.8615 18.8099 34.1779 18.8212 34.366 19.0233Z" fill="#00BC52"/>
</svg>