<svg width="416" height="180" viewBox="0 0 416 180" fill="none" xmlns="http://www.w3.org/2000/svg">
    <path d="
    M11.3333 6C11.3333 8.94552 8.94553 11.3333 11.3333 0.666656 8.94552 0.666656 6C0.666656 3.05448 3.05447 0.666667 6 0.666667C8.94553 0.666667 11.3333 3.05448 11.3333
    6ZM262.5 6V5H262.952L263.25 5.33897L262.5 6ZM415.833 174C415.833 176.946 413.446 179.333 410.5 179.333C407.554
    179.333 405.167 176.946 405.167 174C405.167 171.054 407.554 168.667 410.5 168.667C413.446 168.667 415.833 171.054 415.833 174ZM6
    5H262.5V7H6V5ZM263.25 5.33897L411.25 173.339L409.75 174.661L261.75 6.66103L263.25 5.33897Z"
          fill="white"/>
</svg>
